<?xml version="1.0" encoding="utf-8"?>
<!-- Generator: Adobe Illustrator 24.3.0, SVG Export Plug-In . SVG Version: 6.00 Build 0)  -->
<svg version="1.1" id="Layer_1" xmlns="http://www.w3.org/2000/svg" xmlns:xlink="http://www.w3.org/1999/xlink" x="0px" y="0px"
	 viewBox="0 0 500.7 424.7" style="enable-background:new 0 0 500.7 424.7;" xml:space="preserve">
<style type="text/css">
	.st0{fill:#D1C8C1;}
</style>
<path class="st0" d="M250.1,228.2c-3.9,6.3-6.7,13.1-9.3,19.9c-6.8,17.6-10.8,35.9-13,54.6c-1.3,10.8-2,21.6-1.9,32.3
	c0.2,16.6,1.4,33.2,4,49.7c1.9,12,4.4,23.9,7.4,35.7c0.7,2.7,0.4,3.9-2.8,3.9c-8.2,0-16.5,0.4-24.7,0.4c-12.5-0.1-25-0.8-37.5-2.4
	c-21.6-2.9-42.2-8.8-61.7-17.9c-14.7-6.9-28.2-15.8-40.5-26.5c-12.7-11.2-23.7-23.8-32.8-38c-14.5-22.6-23.9-47.2-29.7-73.3
	c-2.5-11.3-4.3-22.7-5.7-34.1c-2.1-17.1-1.9-34.3-1.8-51.5c0-2.4,1.8-2.6,3.3-2.8c13.8-1.2,27.5-2.4,41.4-1.2
	c7.8,0.7,15.6,0.8,23.4,1.7c0.5,0.1,1,0,1.5,0.1c7.8,0.8,7.8,0.8,7.8-7.1c0-19.8,0-39.7,0-59.5c0-4.6,0-4.4,4.7-3.9
	c14.4,1.3,28.5,3.8,42.6,6.9c6.6,1.4,13.1,3,19.6,4.8c2.7,0.8,4.1,0.3,5.3-2.3c7.3-15.5,16.4-29.9,26.7-43.6
	c7.2-9.5,15-18.5,23-27.4c10-11.1,21.1-21.2,32.2-31.2c5.7-5,11.7-9.7,17.5-14.6c1.1-0.9,1.8-1,2.9,0c8.8,7.6,17.8,15.2,26.6,22.9
	c11.2,9.7,21.3,20.6,31,31.8c14.2,16.3,26.8,33.7,36.9,52.8c1.8,3.3,3.6,6.5,5.2,9.9c1,2,2.2,2.4,4.2,1.8
	c19.1-5.7,38.7-8.8,58.4-11.6c0.9-0.1,1.7-0.1,2.6-0.1c6-0.4,6-0.4,6,5.5c0,20.6,0.1,41.2-0.1,61.8c0,3.6,1.4,4.3,4.4,3.8
	c16.8-2.4,33.7-3.2,50.6-2.9c6.6,0.1,13.1,1,19.7,1.5c2.3,0.2,3.4,1.2,3.3,3.9c-0.2,13,0.3,25.9-0.9,38.9
	c-2.3,25.3-6.4,50.3-14.9,74.3c-9,25.6-22.1,48.9-40.5,69.1c-26.8,29.3-60.1,46.5-98.5,54.9c-15.5,3.4-31.1,4.8-47,5.4
	c-11,0.4-21.9-1-32.8-0.2c-2.6,0.2-3.4-0.8-2.8-3.3c3.6-15.2,6.5-30.6,8.6-46.1c0.8-6,1.1-12.1,1.7-18.2c1-10.9,1.1-21.9,0.7-32.9
	c-1.2-32.1-7.3-63.2-21.7-92.2C252,230.5,251.7,229,250.1,228.2z M177.7,374.1c0.1,0.1,0.2,0.2,0.3,0.3
	C177.9,374.3,177.8,374.2,177.7,374.1c-0.2-1.7-1.4-2.9-2.3-4.2c-10.9-16.6-20.4-34-28.1-52.3c-13.3-31.6-21.1-64.4-21.3-98.9
	c0-2.1-0.8-3.3-2.7-3.9c-6.5-2.2-12.9-4.4-19.5-6.4c-3.7-1.1-4.2,0.2-4.1,3.4c0.1,19.5,0.1,38.9,0.1,58.4c0,1.4,0,2.8,0.2,4.1
	c2.2,15.5,8.8,29.3,17.6,42c13,18.6,29,34.4,46.8,48.4C168.6,368.1,172.4,372.2,177.7,374.1z M323.1,374.1
	c6.3-3.6,11.6-8.5,17.2-12.9c17.7-14.2,33.3-30.3,45.6-49.5c8-12.5,14.5-25.9,14.9-40.9c0.6-20.1,0.1-40.2,0.2-60.2
	c0-2.5-0.9-2.9-3.2-2.3c-7.2,1.8-14.1,4.2-20.9,6.8c-1.3,0.5-2.2,1-2.1,2.6c0.3,3.6-0.6,7.2-0.6,10.8c-0.1,11.8-1.8,23.6-4.1,35.1
	c-7,34.2-20.1,66.1-38.3,95.9C328.8,364.2,325.1,368.6,323.1,374.1c-0.1,0-0.2,0-0.3,0.1c0,0,0,0.1-0.1,0.2
	C322.8,374.3,323,374.2,323.1,374.1z M250.4,28.8c-0.9,0.5-1.8,0.9-2.6,1.5c-4.3,3.7-8.8,7.4-12.9,11.4
	c-11.5,11.1-22.7,22.4-32.8,34.8c-12,14.9-22.7,30.6-31.4,47.6c-1.5,2.9-0.9,4,2,5.1c28,10.8,53.5,25.5,74.4,47.4
	c2.2,2.3,3.6,2.1,5.7-0.1c8.7-8.9,18.4-16.7,28.8-23.7c14.5-9.9,30.2-17.5,46.5-23.8c2.8-1.1,2.9-2,1.6-4.5
	c-9.2-18.1-20.6-34.6-33.5-50.3c-12.9-15.6-27.3-29.7-42.5-43C252.8,30.4,251.6,29.7,250.4,28.8z M175.4,400.1
	c-13.1-9.1-26-18.5-37.9-29.1c-16.3-14.5-31.1-30.2-42.6-48.8C83.8,304,77,284.7,77.8,262.8c0.8-18.8,0.1-37.7,0.2-56.5
	c0-2.6-0.6-3.8-3.3-4.1c-3.4-0.4-6.9-0.8-10.3-1.3c-13-1.9-26-2.2-39.1-2.2c-2.5,0-3.8,0.7-3.4,3.4c0.3,2.2,0.6,4.4,0.7,6.7
	c0.1,11,1.4,21.8,3,32.6c3.8,26.4,11.1,51.7,23.8,75.4c11.6,21.6,27.4,39.4,47.1,53.7c15.7,11.4,33.3,18.9,51.9,24.4
	C157.1,397.5,166.2,398.8,175.4,400.1z M324.2,400.4c11.7-1.5,22.1-3.8,32.3-6.9c25.2-7.7,47.7-20.2,66.4-38.9
	c14.6-14.6,26-31.4,34.3-50.3c12.1-27.1,18-55.7,20.3-85.2c0.4-5.6,0-11.2,1-16.7c0.5-3.1-0.3-3.6-3.1-3.6c-9.6,0-19.2,0-28.8,0.9
	c-6.7,0.6-13.3,1.5-20,2.3c-2.9,0.3-4.1,1.5-4,4.8c0.2,20.2-0.1,40.4,0.2,60.7c0.2,14.5-3.6,28-9.6,41c-8.3,17.8-20.4,33-33.9,47.1
	c-11.3,11.9-23.9,22.5-37.2,32.3C336.5,391.9,330.8,395.8,324.2,400.4z M215.6,252.5c5.9-17.7,13.4-34.3,23.6-49.6
	c1-1.6,0.2-2.5-0.7-3.6c-5.6-6.5-11.9-12.3-18.5-17.8c-16.8-14.1-35.8-24.3-56.2-32.1c-2.8-1.1-3.9-0.4-4.8,2.4
	c-5,15.2-8.7,30.6-9.9,46.5c-0.1,2,0.1,2.9,1.8,3.7c3.8,1.8,7.6,3.8,11.2,5.9c18.6,10.7,35.2,23.8,49.3,40.1
	C212.7,249.4,213.6,251.1,215.6,252.5z M285.1,252.8c2.5-3,4.4-5.6,6.6-7.9c16.1-17.3,34.6-31.5,56-41.7c3.6-1.7,4.3-3.9,3.8-7.3
	c-1.9-14.8-5-29.3-9.7-43.5c-1.1-3.3-2.3-4-5.6-2.7c-18.4,7-35.6,16.3-51.2,28.1c-8.3,6.3-16.1,13.3-22.7,21.5
	c-1.4,1.7-1.2,2.8-0.1,4.5c4.1,6.7,8.1,13.4,11.5,20.5C278,233.3,281.6,242.7,285.1,252.8z M294.6,373.3
	c15.8-20.6,28.8-42.4,38.7-66.1c10.3-24.5,16.7-49.9,18.9-76.4c0.1-1.3,0.8-3-0.5-3.8c-1.1-0.7-2.3,0.6-3.3,1.2
	c-9.8,5.7-19.1,12.1-27.7,19.6c-10.2,8.9-18.9,19.1-26.6,30.2c-1.5,2.1-2.1,4.5-1.5,7.1c3,14.7,3.6,29.6,4.2,44.4
	c0.4,10.2-0.4,20.4-1.3,30.5C295,364.4,294.8,368.9,294.6,373.3z M206.1,373.4c0-0.6,0.1-1.2,0-1.8c-1.5-9.2-1.9-18.5-2.1-27.8
	c-0.2-9.6-0.2-19.1,0.5-28.7c0.8-10.2,1.7-20.3,3.4-30.3c0.4-2.5,0-4.3-1.3-6.2c-9.9-15-22.1-27.9-36.4-38.6
	c-5.9-4.4-12.1-8.3-18.4-12.1c-2.8-1.7-3.8-1.1-3.4,2.1c0.3,2.1,0.6,4.2,0.7,6.3c1.1,16.1,4.7,31.7,9.4,47
	c7.2,23.4,17.8,45.4,30.5,66.3C194.1,357.8,199.4,365.9,206.1,373.4z M401,158.7c0-7.6,0-15.2,0-22.8c0-1.9-0.3-3.3-2.6-2.8
	c-11.6,2.2-23.2,4.3-34.6,7.6c-2,0.6-2.4,1.5-1.7,3.4c1.9,5.5,3.7,11.1,5.2,16.8c2.4,9.1,4.3,18.4,5.4,27.8c0.2,1.6,0.1,3.8,3.3,2.8
	c7.5-2.4,15-4.5,22.6-6.5c2-0.5,2.5-1.4,2.5-3.3C400.9,173.9,401,166.3,401,158.7z M103.3,133.4c-3.4-0.9-3.6,0.5-3.6,2.2
	c0,15.4,0,30.9,0,46.3c0,1.6,0.5,2.3,2.2,2.8c7.8,2.1,15.5,4.4,23.3,6.7c1.6,0.5,2.2,0.3,2.4-1.5c0.2-2.3,0.7-4.6,1.1-7
	c2-13.2,5.3-26,9.6-38.6c0.8-2.1,0.3-3.3-1.9-3.9C125.1,137.8,113.8,134.7,103.3,133.4z"/>
</svg>
